:SAMPLES-PER-SECOND 30
:FULLY-SPECIFIED
:DEGREES
887
root  55.1133 39.1092 12.6313 0.453537 4.40549 -0.845581
RightUpLeg  -10.5666 -3.22602 2.2829
RightLeg  12.4768 43.8683 6.26504
RightFoot  -2.25396 -0.367214 4.42533
RightToes  2.96859e-009 0 -3.6325e-017
Spine  3.93793 -1.92567 10.2402
Spine1  7.79665 -1.78526 0.2532
HEad  -31.2234 -50.2627 18.933
LeftShoulder1  0.277919 2.70732 -28.7477
LeftArm  -0.668172 13.5731 -39.8445
LeftForeArm  17.9759 -17.5184 -5.30194
LeftHand  -0.0151923 2.30389 0.0887825
RightShoulder  -0.52841 -5.142 25.4501
RightArm  22.8603 3.39913 48.5236
RightForeArm  -3.01575 26.8172 5.92894
RightHand  -0.671118 2.88791 -9.60706
LeftUpLeg  -4.93679 -21.6271 5.70295
LeftLeg  19.4895 -15.4461 -5.71749
LeftFoot  -12.6037 0.0640132 -1.20668
LeftToes  3.24686e-010 -7.02549e-012 1.39809e-011
888
root  55.667 39.1138 12.3213 1.08017 -0.873627 -0.968994
RightUpLeg  -11.1478 -2.67111 2.13469
RightLeg  10.2121 48.3485 4.97035
RightFoot  -2.45795 -0.629208 7.87331
RightToes  2.96859e-009 0 -3.6325e-017
Spine  3.97277 -2.26871 8.65624
Spine1  7.87195 -2.38229 0.778827
HEad  -30.4385 -50.614 18.9285
LeftShoulder1  0.240033 2.81107 -28.5048
LeftArm  -0.191611 13.6825 -39.4433
LeftForeArm  17.7108 -18.3376 -5.02706
LeftHand  -0.00733865 2.78506 -0.324812
RightShoulder  -0.608379 -5.38008 25.6596
RightArm  21.4327 3.98705 47.7355
RightForeArm  -4.6331 25.5915 5.7257
RightHand  -0.764355 3.1222 -10.6417
LeftUpLeg  -3.81454 -17.7555 4.29474
LeftLeg  17.3428 -11.253 -3.49815
LeftFoot  -13.2178 0.104541 1.54138
LeftToes  3.24686e-010 -7.02549e-012 1.39809e-011
889
root  56.2232 39.1172 11.9415 1.72211 -5.90051 -1.06586
RightUpLeg  -11.7396 -1.9634 2.0449
RightLeg  6.84564 52.2683 2.49344
RightFoot  -2.643 -0.927345 11.8788
RightToes  2.96859e-009 0 -3.6325e-017
Spine  4.58874 -2.48127 6.47396
Spine1  7.1218 -2.94723 1.82462
HEad  -29.1148 -50.9505 18.4065
LeftShoulder1  0.282323 2.69344 -28.7041
LeftArm  -0.175575 13.5694 -38.8456
LeftForeArm  17.2083 -18.7532 -4.87932
LeftHand  0.00206143 2.25384 -0.559284
RightShoulder  -0.454495 -4.93284 24.9506
RightArm  18.3562 3.24372 46.6964
RightForeArm  -4.8948 25.0667 5.61918
RightHand  -0.730448 3.03628 -10.2694
LeftUpLeg  -3.07221 -11.5918 2.93196
LeftLeg  15.3017 -9.6387 -1.48471
LeftFoot  -13.1287 0.142204 4.14665
LeftToes  3.24686e-010 -7.02549e-012 1.39809e-011
890
root  56.7016 39.1297 11.5756 1.62567 -10.234 -0.771606
RightUpLeg  -11.2105 -1.60284 1.6024
RightLeg  1.63054 55.6259 -1.7179
RightFoot  -3.17315 -1.20325 16.5435
RightToes  2.96859e-009 0 -3.6325e-017
Spine  5.38608 -2.90455 3.01322
Spine1  6.87296 -3.78429 3.07405
HEad  -27.7146 -49.9758 18.1366
LeftShoulder1  0.263641 2.73983 -28.3694
LeftArm  -1.08135 12.7989 -38.6591
LeftForeArm  17.1544 -18.4646 -4.90874
LeftHand  -0.0290529 2.50186 0.632551
RightShoulder  -0.544055 -5.1992 25.3077
RightArm  16.9405 3.48955 45.1206
RightForeArm  -5.82982 24.3626 5.50652
RightHand  -0.681393 2.88516 -9.76466
LeftUpLeg  -2.52908 -5.18301 1.34922
LeftLeg  14.3201 -10.9446 -0.0576706
LeftFoot  -12.3287 0.116879 4.88118
LeftToes  3.24686e-010 -7.02549e-012 1.39809e-011
891
root  57.1921 39.02 11.0936 1.71576 -14.5928 0.272278
RightUpLeg  -12.5994 -1.8545 0.51845
RightLeg  -0.121531 59.2385 -3.22056
RightFoot  -5.13952 -1.20218 21.3054
RightToes  2.96859e-009 0 -3.6325e-017
Spine  6.21285 -3.03714 -0.464535
Spine1  6.60654 -4.13504 3.80377
HEad  -27.0581 -49.0547 18.283
LeftShoulder1  0.282905 2.67638 -28.0341
LeftArm  -2.63302 11.2112 -38.2288
LeftForeArm  17.4971 -17.9858 -4.89659
LeftHand  -0.0180295 2.56494 0.194976
RightShoulder  -0.653783 -5.54596 25.3035
RightArm  15.1606 3.04748 44.4121
RightForeArm  -6.05795 23.6055 5.34576
RightHand  -0.756181 3.20903 -10.4285
LeftUpLeg  -3.68946 -1.3907 -0.114218
LeftLeg  14.9714 -10.1992 -0.274846
LeftFoot  -12.0914 0.102944 4.61389
LeftToes  3.24686e-010 -7.02549e-012 1.39809e-011
892
root  57.633 38.9607 10.5435 1.10437 -18.9381 1.61377
RightUpLeg  -13.9448 -1.95503 -0.453249
RightLeg  -0.519845 59.8673 -3.89034
RightFoot  -5.96191 -1.11968 22.7996
RightToes  2.96859e-009 0 -3.6325e-017
Spine  7.93562 -3.0056 -3.78837
Spine1  5.90991 -4.19911 3.98967
HEad  -26.4592 -48.417 18.5451
LeftShoulder1  0.338322 2.50108 -27.6249
LeftArm  -4.38589 9.68261 -37.4648
LeftForeArm  17.9039 -17.7733 -4.75243
LeftHand  -0.0153675 2.11913 0.187971
RightShoulder  -0.535605 -5.1955 24.8821
RightArm  11.9921 1.03913 44.583
RightForeArm  -5.09795 22.7641 5.16613
RightHand  -0.771291 2.84909 -11.0714
LeftUpLeg  -4.03838 3.7029 -0.882009
LeftLeg  14.7442 -10.9566 -1.94006
LeftFoot  -11.3732 0.0700394 4.3189
LeftToes  3.24686e-010 -7.02549e-012 1.39809e-011
893
root  58.0741 39.0316 10.0249 0.453049 -23.2813 2.07568
RightUpLeg  -15.1888 -1.39822 -0.56638
RightLeg  0.601131 49.9752 -3.43634
RightFoot  -3.28027 -1.18277 16.5889
RightToes  2.96859e-009 0 -3.6325e-017
Spine  8.81077 -3.07491 -5.88048
Spine1  6.42888 -4.44418 4.01851
HEad  -26.7202 -48.1367 19.5958
LeftShoulder1  0.416335 2.24444 -26.8636
LeftArm  -5.0357 8.95214 -36.668
LeftForeArm  16.8727 -18.5291 -4.50856
LeftHand  -0.0441863 2.84101 1.33224
RightShoulder  -0.540711 -5.23192 24.4994
RightArm  11.6187 0.245102 45.1865
RightForeArm  -5.96179 20.4432 4.96595
RightHand  -0.827818 2.69254 -12.0811
LeftUpLeg  -3.4786 5.81074 -1.0393
LeftLeg  13.2054 -8.79248 -2.42037
LeftFoot  -10.3934 0.0286383 3.98079
LeftToes  3.24686e-010 -7.02549e-012 1.39809e-011
894
root  58.5204 39.1274 9.58925 0.446533 -27.4298 2.02838
RightUpLeg  -16.3202 -1.70981 -0.896653
RightLeg  0.766372 30.117 -2.80911
RightFoot  -1.90111 -0.870081 10.2153
RightToes  2.96859e-009 0 -3.6325e-017
Spine  8.90763 -3.23148 -6.8809
Spine1  6.78456 -4.70583 3.98428
HEad  -24.5292 -45.3905 17.1606
LeftShoulder1  0.397773 2.31679 -27.3761
LeftArm  -5.56287 7.58222 -34.9364
LeftForeArm  16.55 -18.6106 -4.44531
LeftHand  -0.0443932 2.59175 1.29517
RightShoulder  -0.51388 -5.14835 24.433
RightArm  11.4913 -1.08002 44.7469
RightForeArm  -5.56457 18.5214 4.98958
RightHand  -0.816996 3.38488 -10.9506
LeftUpLeg  -3.45741 6.21557 -1.24231
LeftLeg  11.6723 -5.0277 -2.07814
LeftFoot  -9.03445 -0.0333607 4.36802
LeftToes  3.24686e-010 -7.02549e-012 1.39809e-011
895
root  58.9224 39.1452 9.24397 0.430176 -31.5569 1.97345
RightUpLeg  -16.3351 -3.86563 -1.6461
RightLeg  0.0319769 10.033 -0.349746
RightFoot  -4.33532 -0.647948 10.0906
RightToes  2.96859e-009 0 -3.6325e-017
Spine  9.05977 -3.35025 -7.06464
Spine1  6.53344 -4.60335 3.07095
HEad  -23.9426 -44.4078 15.6542
LeftShoulder1  0.295018 2.64363 -28.1328
LeftArm  -7.5801 6.12814 -33.952
LeftForeArm  17.3412 -18.2518 -4.29349
LeftHand  -0.0586118 3.29243 2.42636
RightShoulder  -0.559497 -5.28045 24.7245
RightArm  11.9491 -2.39386 43.8449
RightForeArm  -3.21058 16.1685 5.24513
RightHand  -0.630147 2.5787 -9.65808
LeftUpLeg  -3.77288 6.77733 -1.19259
LeftLeg  11.2674 -1.4889 -2.1697
LeftFoot  -8.47094 -0.0621325 4.51927
LeftToes  3.24686e-010 -7.02549e-012 1.39809e-011
896
root  59.2649 39.2509 8.96476 0.495911 -35.4351 1.7829
RightUpLeg  -15.7452 -6.49393 -2.22171
RightLeg  -0.459533 -1.90802 2.69848
RightFoot  -5.16766 -0.544912 9.46885
RightToes  2.96859e-009 0 -3.6325e-017
Spine  8.85956 -3.47238 -7.01119
Spine1  6.4994 -4.61467 2.60835
HEad  -24.0336 -43.7582 15.0582
LeftShoulder1  0.18757 2.95726 -28.1587
LeftArm  -9.07814 5.47827 -34.3258
LeftForeArm  16.1986 -18.124 -4.18533
LeftHand  -0.0561177 4.13207 3.31504
RightShoulder  -0.570803 -5.31836 24.6964
RightArm  11.7643 -3.88384 43.2582
RightForeArm  -2.40005 13.3589 5.7549
RightHand  -0.699557 0.407662 -13.9776
LeftUpLeg  -3.40693 6.9669 -1.06877
LeftLeg  9.65052 2.01463 -2.02784
LeftFoot  -7.34239 -0.106687 4.32651
LeftToes  3.24686e-010 -7.02549e-012 1.39809e-011
897
root  59.5943 39.3415 8.69822 0.953583 -39.7072 1.25452
RightUpLeg  -16.3858 -6.43112 -2.05266
RightLeg  1.75754 -3.74664 2.4755
RightFoot  -4.52197 -0.494178 7.75144
RightToes  2.96859e-009 0 -3.6325e-017
Spine  9.01001 -3.36395 -6.56712
Spine1  5.71329 -4.36853 2.25709
HEad  -25.5017 -43.37 14.9156
LeftShoulder1  0.191031 2.94372 -27.9794
LeftArm  -11.192 5.89894 -35.5262
LeftForeArm  16.2932 -18.3917 -3.90363
LeftHand  -0.0621951 3.83213 3.2817
RightShoulder  -0.555794 -5.25255 25.0104
RightArm  9.32214 -5.33413 42.0083
RightForeArm  0.457445 10.2778 5.56661
RightHand  -0.481657 1.34885 -8.46534
LeftUpLeg  -3.27552 7.20006 -0.805603
LeftLeg  8.19782 5.8252 -1.66571
LeftFoot  -6.31735 -0.134558 3.93456
LeftToes  3.24686e-010 -7.02549e-012 1.39809e-011
898
root  59.7774 39.3846 8.4536 1.15552 -43.1546 0.552429
RightUpLeg  -16.6029 -7.56708 -1.89087
RightLeg  5.27768 -0.919861 2.13797
RightFoot  -4.58758 -0.487967 7.72995
RightToes  2.96859e-009 0 -3.6325e-017
Spine  8.98242 -3.4323 -6.79374
Spine1  5.57672 -4.54119 2.59089
HEad  -25.4792 -41.1323 14.2913
LeftShoulder1  0.251246 2.76036 -27.6112
LeftArm  -11.8303 6.48463 -36.9278
LeftForeArm  15.4813 -18.8544 -3.84419
LeftHand  -0.0678728 3.63922 3.40591
RightShoulder  -0.513779 -5.11993 24.9819
RightArm  8.49574 -6.8718 41.3621
RightForeArm  1.12819 7.73417 5.37856
RightHand  -0.446363 0.376047 -9.06038
LeftUpLeg  -2.99473 7.77032 -0.129376
LeftLeg  7.69797 8.57036 -1.45096
LeftFoot  -5.95692 -0.125061 3.41769
LeftToes  3.24686e-010 -7.02549e-012 1.39809e-011
899
root  59.9376 39.3592 8.20951 1.00923 -46.26 0.286438
RightUpLeg  -16.7967 -9.63464 -2.14934
RightLeg  9.41083 3.83049 1.79628
RightFoot  -4.93773 -0.477847 7.92537
RightToes  2.96859e-009 0 -3.6325e-017
Spine  9.02587 -3.62506 -7.51463
Spine1  5.70868 -4.98071 3.26307
HEad  -25.7957 -38.3987 13.6729
LeftShoulder1  0.243614 2.79034 -28.0419
LeftArm  -10.4393 6.1898 -37.4445
LeftForeArm  15.527 -19.156 -3.95882
LeftHand  -0.0813593 2.8866 3.1308
RightShoulder  -0.494027 -5.06481 24.8354
RightArm  7.71555 -8.19679 40.9
RightForeArm  0.585945 5.9659 4.99687
RightHand  -0.441514 0.603202 -8.6431
LeftUpLeg  -3.13375 8.10393 0.17162
LeftLeg  8.29847 11.1897 -1.01394
LeftFoot  -5.98814 -0.112141 3.17018
LeftToes  3.24686e-010 -7.02549e-012 1.39809e-011
900
root  60.0461 39.3503 7.95028 0.998734 -48.7318 0.0219116
RightUpLeg  -16.681 -10.085 -3.38593
RightLeg  13.3872 5.46318 1.48953
RightFoot  -4.72241 -0.480157 7.73163
RightToes  2.96859e-009 0 -3.6325e-017
Spine  9.38177 -3.8991 -8.4776
Spine1  5.3677 -5.68871 4.59887
HEad  -26.0686 -35.5323 13.0657
LeftShoulder1  0.134845 3.11556 -28.5406
LeftArm  -7.58554 5.86735 -38.1413
LeftForeArm  15.0734 -20.0727 -4.14256
LeftHand  -0.0893292 2.43742 3.09652
RightShoulder  -0.561002 -5.30212 24.4076
RightArm  7.91952 -9.07374 40.7355
RightForeArm  -1.50217 4.02863 5.08017
RightHand  -0.51012 0.707258 -9.8595
LeftUpLeg  -3.32353 8.50895 0.614618
LeftLeg  8.77459 13.1236 -0.750443
LeftFoot  -5.88284 -0.104668 2.93901
LeftToes  3.24686e-010 -7.02549e-012 1.39809e-011
901
root  60.0988 39.3276 7.67276 0.858627 -51.0919 0.110352
RightUpLeg  -16.4838 -9.16491 -5.40397
RightLeg  17.047 3.46461 0.959653
RightFoot  -4.13536 -0.46103 6.88678
RightToes  2.96859e-009 0 -3.6325e-017
Spine  9.36643 -4.09313 -8.94489
Spine1  5.15037 -6.03655 4.96493
HEad  -25.8326 -33.2482 12.5975
LeftShoulder1  0.159941 3.04302 -28.5692
LeftArm  -5.52586 5.32991 -39.1036
LeftForeArm  15.7023 -20.4889 -4.18415
LeftHand  -0.0797987 1.80675 2.30419
RightShoulder  -0.64965 -5.54453 25.1309
RightArm  7.68761 -11.0427 39.7878
RightForeArm  -1.36699 4.4017 4.83822
RightHand  -0.499331 1.35326 -8.68498
LeftUpLeg  -3.56452 8.70225 0.789427
LeftLeg  9.16334 15.2669 -0.300278
LeftFoot  -5.78955 -0.0812317 2.39431
LeftToes  3.24686e-010 -7.02549e-012 1.39809e-011
